bicep_curl
version=1
nRows=272
nColumns=3
inDegrees=yes

# SIMM Motion File Header:
name bicep_curl
datacolumns 3
datarows 272
otherdata 1
range 0.0000 0.2710
endheader
time	/jointset/r_shoulder/r_shoulder_elev/value	/jointset/r_elbow/r_elbow_flex/value
0.0000	0.0000	37.8000
0.0010	0.0000	37.6755
0.0020	0.0000	37.5512
0.0030	0.0000	37.4273
0.0040	0.0000	37.3036
0.0050	0.0000	37.1802
0.0060	0.0000	37.0572
0.0070	0.0000	36.9344
0.0080	0.0000	36.8120
0.0090	0.0000	36.6898
0.0100	0.0000	36.5679
0.0110	0.0000	36.4463
0.0120	0.0000	36.3251
0.0130	0.0000	36.2041
0.0140	0.0000	36.0834
0.0150	0.0000	35.9630
0.0160	0.0000	35.8430
0.0170	0.0000	35.7232
0.0180	0.0000	35.6037
0.0190	0.0000	35.4845
0.0200	0.0000	35.3656
0.0210	0.0000	35.2470
0.0220	0.0000	35.1287
0.0230	0.0000	35.0107
0.0240	0.0000	34.8930
0.0250	0.0000	34.7756
0.0260	0.0000	34.6585
0.0270	0.0000	34.5417
0.0280	0.0000	34.4252
0.0290	0.0000	34.3089
0.0300	0.0000	34.1930
0.0310	0.0000	34.0774
0.0320	0.0000	33.9621
0.0330	0.0000	33.8471
0.0340	0.0000	33.7323
0.0350	0.0000	33.6179
0.0360	0.0000	33.5038
0.0370	0.0000	33.3899
0.0380	0.0000	33.2764
0.0390	0.0000	33.1632
0.0400	0.0000	33.0502
0.0410	0.0000	32.9376
0.0420	0.0000	32.8252
0.0430	0.0000	32.7132
0.0440	0.0000	32.6014
0.0450	0.0000	32.4900
0.0460	0.0000	32.3788
0.0470	0.0000	32.2679
0.0480	0.0000	32.1574
0.0490	0.0000	32.0471
0.0500	0.0000	31.9372
0.0510	0.0000	31.8275
0.0520	0.0000	31.7181
0.0530	0.0000	31.6090
0.0540	0.0000	31.5003
0.0550	0.0000	31.3918
0.0560	0.0000	31.2836
0.0570	0.0000	31.1757
0.0580	0.0000	31.0681
0.0590	0.0000	30.9608
0.0600	0.0000	30.8539
0.0610	0.0000	30.7472
0.0620	0.0000	30.6408
0.0630	0.0000	30.5347
0.0640	0.0000	30.4289
0.0650	0.0000	30.3234
0.0660	0.0000	30.2182
0.0670	0.0000	30.1132
0.0680	0.0000	30.0086
0.0690	0.0000	29.9043
0.0700	0.0000	29.8003
0.0710	0.0000	29.6966
0.0720	0.0000	29.5932
0.0730	0.0000	29.4900
0.0740	0.0000	29.3872
0.0750	0.0000	29.2847
0.0760	0.0000	29.1825
0.0770	0.0000	29.0805
0.0780	0.0000	28.9789
0.0790	0.0000	28.8776
0.0800	0.0000	28.7765
0.0810	0.0000	28.6758
0.0820	0.0000	28.5753
0.0830	0.0000	28.4752
0.0840	0.0000	28.3753
0.0850	0.0000	28.2758
0.0860	0.0000	28.1765
0.0870	0.0000	28.0776
0.0880	0.0000	27.9789
0.0890	0.0000	27.8805
0.0900	0.0000	27.7825
0.0910	0.0000	27.6847
0.0920	0.0000	27.5872
0.0930	0.0000	27.4901
0.0940	0.0000	27.3932
0.0950	0.0000	27.2966
0.0960	0.0000	27.2003
0.0970	0.0000	27.1044
0.0980	0.0000	27.0087
0.0990	0.0000	26.9133
0.1000	0.0000	26.8182
0.1010	0.0000	26.7234
0.1020	0.0000	26.6289
0.1030	0.0000	26.5347
0.1040	0.0000	26.4408
0.1050	0.0000	26.3472
0.1060	0.0000	26.2539
0.1070	0.0000	26.1609
0.1080	0.0000	26.0682
0.1090	0.0000	25.9758
0.1100	0.0000	25.8837
0.1110	0.0000	25.7918
0.1120	0.0000	25.7003
0.1130	0.0000	25.6091
0.1140	0.0000	25.5182
0.1150	0.0000	25.4276
0.1160	0.0000	25.3372
0.1170	0.0000	25.2472
0.1180	0.0000	25.1575
0.1190	0.0000	25.0680
0.1200	0.0000	24.9789
0.1210	0.0000	24.8900
0.1220	0.0000	24.8015
0.1230	0.0000	24.7133
0.1240	0.0000	24.6253
0.1250	0.0000	24.5377
0.1260	0.0000	24.4503
0.1270	0.0000	24.3633
0.1280	0.0000	24.2765
0.1290	0.0000	24.1900
0.1300	0.0000	24.1039
0.1310	0.0000	24.0180
0.1320	0.0000	23.9324
0.1330	0.0000	23.8472
0.1340	0.0000	23.7622
0.1350	0.0000	23.6775
0.1360	0.0000	23.5931
0.1370	0.0000	23.5091
0.1380	0.0000	23.4253
0.1390	0.0000	23.3418
0.1400	0.0000	23.2586
0.1410	0.0000	23.1757
0.1420	0.0000	23.0931
0.1430	0.0000	23.0108
0.1440	0.0000	22.9288
0.1450	0.0000	22.8471
0.1460	0.0000	22.7657
0.1470	0.0000	22.6846
0.1480	0.0000	22.6038
0.1490	0.0000	22.5233
0.1500	0.0000	22.4431
0.1510	0.0000	22.3632
0.1520	0.0000	22.2836
0.1530	0.0000	22.2043
0.1540	0.0000	22.1252
0.1550	0.0000	22.0465
0.1560	0.0000	21.9681
0.1570	0.0000	21.8900
0.1580	0.0000	21.8121
0.1590	0.0000	21.7346
0.1600	0.0000	21.6574
0.1610	0.0000	21.5804
0.1620	0.0000	21.5038
0.1630	0.0000	21.4274
0.1640	0.0000	21.3514
0.1650	0.0000	21.2756
0.1660	0.0000	21.2002
0.1670	0.0000	21.1250
0.1680	0.0000	21.0502
0.1690	0.0000	20.9756
0.1700	0.0000	20.9014
0.1710	0.0000	20.8274
0.1720	0.0000	20.7537
0.1730	0.0000	20.6804
0.1740	0.0000	20.6073
0.1750	0.0000	20.5345
0.1760	0.0000	20.4620
0.1770	0.0000	20.3899
0.1780	0.0000	20.3180
0.1790	0.0000	20.2464
0.1800	0.0000	20.1751
0.1810	0.0000	20.1041
0.1820	0.0000	20.0334
0.1830	0.0000	19.9630
0.1840	0.0000	19.8929
0.1850	0.0000	19.8232
0.1860	0.0000	19.7537
0.1870	0.0000	19.6844
0.1880	0.0000	19.6155
0.1890	0.0000	19.5469
0.1900	0.0000	19.4786
0.1910	0.0000	19.4106
0.1920	0.0000	19.3429
0.1930	0.0000	19.2755
0.1940	0.0000	19.2084
0.1950	0.0000	19.1415
0.1960	0.0000	19.0750
0.1970	0.0000	19.0088
0.1980	0.0000	18.9429
0.1990	0.0000	18.8772
0.2000	0.0000	18.8119
0.2010	0.0000	18.7469
0.2020	0.0000	18.6821
0.2030	0.0000	18.6177
0.2040	0.0000	18.5535
0.2050	0.0000	18.4897
0.2060	0.0000	18.4261
0.2070	0.0000	18.3629
0.2080	0.0000	18.2999
0.2090	0.0000	18.2373
0.2100	0.0000	18.1749
0.2110	0.0000	18.1129
0.2120	0.0000	18.0511
0.2130	0.0000	17.9896
0.2140	0.0000	17.9285
0.2150	0.0000	17.8676
0.2160	0.0000	17.8070
0.2170	0.0000	17.7467
0.2180	0.0000	17.6868
0.2190	0.0000	17.6271
0.2200	0.0000	17.5677
0.2210	0.0000	17.5086
0.2220	0.0000	17.4498
0.2230	0.0000	17.3913
0.2240	0.0000	17.3331
0.2250	0.0000	17.2752
0.2260	0.0000	17.2176
0.2270	0.0000	17.1603
0.2280	0.0000	17.1033
0.2290	0.0000	17.0466
0.2300	0.0000	16.9902
0.2310	0.0000	16.9341
0.2320	0.0000	16.8783
0.2330	0.0000	16.8228
0.2340	0.0000	16.7676
0.2350	0.0000	16.7127
0.2360	0.0000	16.6580
0.2370	0.0000	16.6037
0.2380	0.0000	16.5497
0.2390	0.0000	16.4960
0.2400	0.0000	16.4425
0.2410	0.0000	16.3894
0.2420	0.0000	16.3365
0.2430	0.0000	16.2840
0.2440	0.0000	16.2318
0.2450	0.0000	16.1798
0.2460	0.0000	16.1282
0.2470	0.0000	16.0768
0.2480	0.0000	16.0258
0.2490	0.0000	15.9750
0.2500	0.0000	15.9246
0.2510	0.0000	15.8744
0.2520	0.0000	15.8245
0.2530	0.0000	15.7750
0.2540	0.0000	15.7257
0.2550	0.0000	15.6767
0.2560	0.0000	15.6281
0.2570	0.0000	15.5797
0.2580	0.0000	15.5316
0.2590	0.0000	15.4838
0.2600	0.0000	15.4364
0.2610	0.0000	15.3892
0.2620	0.0000	15.3423
0.2630	0.0000	15.2957
0.2640	0.0000	15.2494
0.2650	0.0000	15.2034
0.2660	0.0000	15.1577
0.2670	0.0000	15.1123
0.2680	0.0000	15.0672
0.2690	0.0000	15.0224
0.2700	0.0000	14.9779
0.2710	0.0000	14.9337
